<?xml version="1.0" encoding="utf-8"?>
<!-- Generator: Adobe Adobe Illustrator 24.2.0, SVG Export Plug-In . SVG Version: 6.00 Build 0)  -->
<svg version="1.1" id="Layer_1" xmlns="http://www.w3.org/2000/svg" xmlns:xlink="http://www.w3.org/1999/xlink" x="0px" y="0px"
	 viewBox="0 0 4000 4000" style="enable-background:new 0 0 4000 4000;" xml:space="preserve">
<style type="text/css">
	.st0{fill:#177DAF;}
	.st1{fill:url(#SVGID_1_);}
	.st2{fill:url(#SVGID_2_);}
	.st3{fill:url(#SVGID_3_);}
	.st4{fill:url(#SVGID_4_);}
	.st5{fill:url(#SVGID_5_);}
	.st6{fill:url(#SVGID_6_);}
	.st7{fill:url(#SVGID_7_);}
	.st8{fill:url(#SVGID_8_);}
	.st9{fill:url(#SVGID_9_);}
	.st10{fill:url(#SVGID_10_);}
	.st11{fill:url(#SVGID_11_);}
	.st12{fill:#D4D4D4;}
	.st13{fill:#D6D6D6;}
	.st14{fill:none;stroke:#BDBDBD;stroke-width:17;stroke-miterlimit:10;}
	.st15{fill:#18B9EE;}
</style>
<g>
	<g>
		<g>
			<g>
				<path class="st0" d="M1472.1,3693.21l3.6-1.36l249.11-405.25c0.95-1.54,1.26-3.39,0.87-5.16c-2.24-10.19-9.29-47.16-1.88-79.43
					c9.18-40,37.12-62.47,47.89-69.84c2.36-1.61,3.06-4.77,1.58-7.21l-27.75-45.78c0,0-191.9,40.21-293.77,29.83
					c-0.12-0.01-0.23-0.02-0.35-0.02c-193.01-0.04-322.95-64.93-353.17-81.61c-2.83-1.56-6.23,0.73-5.87,3.94l55.75,496.24
					c0,0,0.68,49.28,128.75,105.03C1447.69,3706.96,1472.1,3693.21,1472.1,3693.21z"/>
				<linearGradient id="SVGID_1_" gradientUnits="userSpaceOnUse" x1="1728.9315" y1="791.273" x2="3225.0615" y2="1453.6223">
					<stop  offset="0" style="stop-color:#175376"/>
					<stop  offset="0.0523" style="stop-color:#156E6D"/>
					<stop  offset="0.1369" style="stop-color:#139361"/>
					<stop  offset="0.2215" style="stop-color:#11B058"/>
					<stop  offset="0.3051" style="stop-color:#0FC551"/>
					<stop  offset="0.387" style="stop-color:#0ED24D"/>
					<stop  offset="0.4656" style="stop-color:#0ED64C"/>
					<stop  offset="0.5352" style="stop-color:#0BD663"/>
					<stop  offset="0.6821" style="stop-color:#06D690"/>
					<stop  offset="0.8138" style="stop-color:#03D6AF"/>
					<stop  offset="0.9243" style="stop-color:#01D6C3"/>
					<stop  offset="1" style="stop-color:#00D6CA"/>
				</linearGradient>
				<path class="st1" d="M1586.17,1270.34l-105.53-208.01c0,0,184.02-198.11,549.19-333.54c454.05-168.4,581.98-88.65,581.98-88.65
					l364.45,291.49c3.74,3.11,5.36,8.09,4.1,12.79c-2.66,9.94-5.12,29.4,5.46,53.9c10.97,25.39,26.19,36.75,35.59,41.61
					c5.22,2.7,8.4,8.18,8.25,14.06l-13.13,509.83c-0.04,2.61-1.65,4.94-4.09,5.88c-9.78,3.73-35.05,15.86-49.38,45.43
					c-12.65,26.11-13.6,47.06-13.28,55.91c0.1,2.85-1.36,5.52-3.84,6.92l-96.34,54.51c0,0,137.55-651.4-380.32-779.64
					C1911.84,814.79,1586.17,1270.34,1586.17,1270.34z"/>
				<linearGradient id="SVGID_2_" gradientUnits="userSpaceOnUse" x1="2468.696" y1="120.9725" x2="3404.1326" y2="1356.0614">
					<stop  offset="0" style="stop-color:#0ED64C"/>
					<stop  offset="1" style="stop-color:#00D6CA"/>
				</linearGradient>
				<path class="st2" d="M3151.79,787.65l-71.54,104.44c-1.87,2.73-5.18,4.06-8.42,3.38c-7.17-1.52-20.92-3.32-36.05,0.49
					c-14.8,3.73-26.82,11.6-33.24,16.48c-3.09,2.34-7.38,2.21-10.32-0.31l-336.5-287.4c-5.51-4.39-2.46-13.27,4.58-13.34
					c46.99-0.42,166.65,2.93,279.17,42.25c95.67,33.43,175.81,85.45,208.19,108.04C3156.15,767.61,3158.04,779.39,3151.79,787.65z"
					/>
				<linearGradient id="SVGID_3_" gradientUnits="userSpaceOnUse" x1="3338.7715" y1="1651.9147" x2="3208.103" y2="391.2899">
					<stop  offset="0" style="stop-color:#00D6CA"/>
					<stop  offset="1" style="stop-color:#0ED64C"/>
				</linearGradient>
				<path class="st3" d="M3206.86,796.25c-4.5-2.13-9.86-0.98-13.14,2.77l-90.52,103.5c-2.94,2.8-2.68,7.55,0.54,10.01
					c13.42,10.28,42.3,38.17,29.96,80.72c-11.53,39.75-47.78,50.26-63.78,52.99c-4.46,0.76-7.76,4.56-7.82,9.08l-6.77,498.96
					c-0.06,3.96,3.21,7.19,7.17,7c13.41-0.62,42.57,0.56,64.02,19.5c31.85,28.12,37.19,61.64,37.93,76.03
					c0.21,4.08,3.45,7.34,7.53,7.57l431.83,30.86c0,0,21.32-330.5-126.44-593.32C3356.88,887.58,3238.83,811.38,3206.86,796.25z"/>
				<linearGradient id="SVGID_4_" gradientUnits="userSpaceOnUse" x1="2764.1189" y1="2464.3491" x2="3186.1892" y2="1143.4254">
					<stop  offset="0" style="stop-color:#13ACC6"/>
					<stop  offset="1" style="stop-color:#00D6CA"/>
				</linearGradient>
				<path class="st4" d="M2979.13,1753.6c21.13,19.49,38.12,21.56,48.16,24.21c2.67,0.71,4.35,3.33,3.92,6.06l-29.38,183.45
					l-20.93,131.42l-31.4,207.01l-42.92,318.3c-0.37,2.73-2.67,4.81-5.43,4.85c-7.5,0.12-22.75,1.36-37.6,8.66
					c-10.43,5.12-19.98,14.17-25.15,19.59c-2.24,2.35-5.99,2.33-8.18-0.07l-236.23-258c-1.47-1.6-1.69-3.97-0.57-5.84
					c14.3-23.99,59.67-66.52,152.88-290.05c85.67-205.46,85.55-278.17,94.21-314.64c1.02-4.29,3.7-8,7.46-10.31l99.58-62.39
					c2.95-1.85,6.83-0.72,8.35,2.41C2960.3,1727.36,2969.48,1744.7,2979.13,1753.6z"/>
				<linearGradient id="SVGID_5_" gradientUnits="userSpaceOnUse" x1="1967.0876" y1="3155.9692" x2="2785.0623" y2="2531.7253">
					<stop  offset="0" style="stop-color:#177DAF"/>
					<stop  offset="1" style="stop-color:#13ACC6"/>
				</linearGradient>
				<path class="st5" d="M2810.92,2696.2l-241.46-254.86c-1.74-1.83-4.69-1.7-6.23,0.3c-23.23,30.03-181.38,231.38-339.26,354.63
					c-189.99,148.32-409.42,243.55-449.57,260.38c-3.45,1.45-4.87,5.57-3.06,8.84l29.41,53.12c1.69,3.05,4.9,4.93,8.38,4.9
					c9.8-0.09,30.74,0.44,48.56,5.88c20.89,6.37,36.65,23.49,41.8,29.66c1.11,1.33,2.94,1.77,4.53,1.09l899.14-382.83
					c1.58-0.67,2.54-2.27,2.38-3.98c-0.68-7.19-2.31-26.33-1.62-37.49c0.97-15.69,5.53-27.71,8.05-33.3
					C2812.94,2700.4,2812.54,2697.9,2810.92,2696.2z"/>
				<linearGradient id="SVGID_6_" gradientUnits="userSpaceOnUse" x1="2271.6931" y1="3361.6274" x2="3118.3687" y2="2170.5415">
					<stop  offset="0" style="stop-color:#177DAF"/>
					<stop  offset="1" style="stop-color:#13ACC6"/>
				</linearGradient>
				<path class="st6" d="M2815.42,2822.05c-71.4,29.7-832.58,346.37-893.67,373.32c-2.2,0.97-3.35,3.39-2.71,5.71
					c4.3,15.62,16.29,74.6-35.17,111.01c-59.01,41.75-116.63,7.76-130.81-1.94c-1.84-1.26-4.34-0.71-5.51,1.18l-238.36,385.04
					c-1.29,2.09,0.04,4.81,2.48,5.04c49.61,4.81,441.43,36.06,822.79-133c341.81-151.53,704.46-520.13,763-581.01
					c4.61-4.8,4.67-12.35,0.14-17.23l-115.76-124.46c-2.06-2.21-5.27-2.88-8.06-1.71c-10.74,4.52-32.44,17.02-74.67,11.98
					c-38.21-4.57-63.35-27.69-73.52-33.35C2822.46,2820.88,2818.73,2820.67,2815.42,2822.05z"/>
				<linearGradient id="SVGID_7_" gradientUnits="userSpaceOnUse" x1="3193.4795" y1="2404.1167" x2="3340.7495" y2="1785.8889">
					<stop  offset="0" style="stop-color:#13ACC6"/>
					<stop  offset="1" style="stop-color:#00D6CA"/>
				</linearGradient>
				<path class="st7" d="M3157.66,1714.49c0.36-2.14,2.32-3.62,4.47-3.43l435.2,39.93c3.51,0.24,6.29,3.05,6.49,6.57
					c0,0,2.45,221.87-158.91,635.64c-139.19,356.94-276.72,525.54-301.58,549.99c-1.95,1.92-5.1,1.83-6.94-0.19l-123.83-136.08
					c-1.96-2.16-2.53-5.22-1.44-7.93c6.03-15.07,23.92-66.41,6.13-106.03c-20.41-45.45-58.4-57.53-71.93-60.46
					c-2.77-0.6-4.6-3.27-4.19-6.08l121.08-841.65c0.24-1.64,1.65-2.83,3.3-2.79c9.25,0.23,38.95-0.67,62.05-19.91
					C3150.68,1742.81,3156.3,1722.67,3157.66,1714.49z"/>
				<circle class="st0" cx="1824.15" cy="3229.03" r="67.73"/>
				<linearGradient id="SVGID_8_" gradientUnits="userSpaceOnUse" x1="2881.5264" y1="2838.2449" x2="3158.834" y2="2104.6184">
					<stop  offset="0" style="stop-color:#13ACC6"/>
					<stop  offset="0.4867" style="stop-color:#0BBEC8"/>
					<stop  offset="1" style="stop-color:#00D6CA"/>
				</linearGradient>
				<ellipse class="st8" cx="2917.63" cy="2742.73" rx="74.87" ry="78.47"/>
				<linearGradient id="SVGID_9_" gradientUnits="userSpaceOnUse" x1="3042.7446" y1="1858.0953" x2="3138.5642" y2="402.905">
					<stop  offset="0" style="stop-color:#00D6CA"/>
					<stop  offset="1" style="stop-color:#0ED64C"/>
				</linearGradient>
				<circle class="st9" cx="3055.22" cy="1668.66" r="76.17"/>
				<linearGradient id="SVGID_10_" gradientUnits="userSpaceOnUse" x1="2880.6433" y1="740.3728" x2="3245.7173" y2="1213.4171">
					<stop  offset="0" style="stop-color:#0ED64C"/>
					<stop  offset="0.0936" style="stop-color:#0DD659"/>
					<stop  offset="0.7155" style="stop-color:#04D6AA"/>
					<stop  offset="1" style="stop-color:#00D6CA"/>
				</linearGradient>
				<circle class="st10" cx="3057.49" cy="969.53" r="50.26"/>
				<linearGradient id="SVGID_11_" gradientUnits="userSpaceOnUse" x1="925.7822" y1="2329.1885" x2="826.8286" y2="3091.1311">
					<stop  offset="0" style="stop-color:#175376"/>
					<stop  offset="1" style="stop-color:#177DAF"/>
				</linearGradient>
				<path class="st11" d="M689.75,2067.04c10.12-33.33,125.38,200.95,125.38,200.95c4.41,7.06,4.22,16.07-0.53,22.91
					c-22.86,32.92-80.54,147.59-9.94,400.07c63.99,228.82,163.71,295.12,207.1,313.65c13.34,5.7,22.66,18.02,24.33,32.43
					l54.21,468.85c0.69,5.98-5.64,10.24-10.93,7.37c-46.98-25.56-214.84-123.93-312.44-273.34
					c-121.59-186.11-151.3-307.1-158.51-351.9c-1.64-10.19,5.76-19.58,16.06-20.34c33.59-2.47,101.89-12.12,105.68-49.83
					c4.61-45.91-61-103.73-92.19-128.44c-11.66-9.23-20.3-21.76-24.69-35.97c-12.51-40.4-24.03-130.33-11.59-266.69
					C622.9,2154.44,689.75,2067.04,689.75,2067.04z"/>
			</g>
			<g>
				<g>
					<circle class="st12" cx="1385.19" cy="1706.81" r="29.53"/>
					<circle class="st12" cx="1025.82" cy="2247.62" r="29.53"/>
					<path class="st13" d="M1250.72,1066.73c-38.69-11.21-80.68-14.98-121.24-15.11c-334.79-1.07-669.59-0.53-1004.38-0.39
						c-9.82,0-19.63,1.05-40.63,2.25c14.23,14.11,21.07,22.58,29.49,28.96c39.37,29.86,74.8,62.76,90.91,113.88
						c-0.76,2.78-0.42,3.55-0.42,3.55s2.02-0.99,2.84-0.22c4.22,5.12,7.61,9.47,10.26,15.44c1.31,8.12,3.37,14.62,5.47,23.19
						c3.19,9.01,6.34,15.97,8.25,24.7c-1.25,1.77-0.74,3.99-0.74,3.99c5.82,33.97,16.61,67.93,16.71,101.92
						c1.16,376.33,1.51,752.67,0.06,1129c-0.39,100.2-24.71,194.01-101.8,265.82c-10.7,9.97-39.77,24.31-49.41,28.94
						c-2.06,0.99-3.76,2.6-4.85,4.61l-6.21,11.48c-0.43,0.79,0.14,1.74,1.04,1.74H672.9c0,0,8.2,0.25,12.01-1.64
						c1.12-0.56,1.31-2.08,0.38-2.93c-3.91-3.6-5.65-9.32-12.08-13.2c-11.14-6.74-35.09-16.03-42.19-22.15
						c-51.39-44.32-81.5-93.56-95.17-159.73c-9.56-46.3-13.18-94.47-13.69-141.87c-1.69-157.36-0.2-314.75-1.49-472.11
						c-0.18-22.52,8.92-28.29,27.53-28.53c42.16-0.55,84.52-3.31,126.38,0.03c13.33,1.06,29.89,15.92,37.27,28.86
						c64.72,113.49,127.71,227.97,191.17,342.17c83.81,150.83,167.32,301.84,251.98,452.19c5.64,10.02,19.91,21.48,30.27,21.59
						c123.11,1.33,246.24,0.64,369.37,0.32c1.83,0,3.66-2.11,11.62-7c-15.75-14.29-30.82-27.06-44.88-40.86
						c-93.5-91.75-166.12-198.67-224.06-315.44c-20.72-41.75-38.21-63.58-95.98-58.11c-6.74,0.64-13.76-0.5-20.49,0.14
						c-76.16,7.21-111.72-11.17-137.44-74.71c-4.19-10.36-18.93-18.46-30.58-23.41c-28.23-12.01-40.88-35.1-31.14-62.25
						c8.37-23.32,35.29-34.12,62.88-25.23c26.14,8.43,37.11,31.61,28.37,59.93c-11.62,37.64,27.88,92.96,66.68,93.17
						c30.58,0.16,61.16,0.03,96.48,0.03c-3.81-38.55-25.92-65.24-41.51-93.93c-48.8-89.81-99.22-178.74-148.78-268.14
						c-6.13-11.06-13.76-23.75,9.01-26.69c6.6,1.09,11.67,0.78,19.27,0.78c25.82-1.19,49.16-2.11,72.38-4.31
						c27.75-2.62,55.39-6.33,85.6-8.61c1.51-0.15,2.98-0.33,4.42-0.51l0.01-0.01c0.82-0.21,2.86-0.47,4.03-0.55
						c0.07-0.02,0.14-0.03,0.21-0.04c0.77-0.26,1.52-0.54,2.14-0.72c4.55-1.39-6.35,1.18,0.79-0.54c1.59-0.38,3.2-0.48,4.79-0.84
						c3.77-0.86,6.93-2.95,10.92-3.22c0.88-0.06,1.37-0.07,1.63-0.06c0.15-0.03,0.29-0.05,0.46-0.08c1.28-0.4,2.55-0.52,3.83-0.38
						c0.11-0.04,0.23-0.07,0.34-0.11c0.73-0.4,1.47-0.68,2.21-0.9c0.12-0.05,0.23-0.12,0.35-0.17c2.2-1.49,4.59-2.52,7.09-3.27
						c0.21-0.06,0.38-0.12,0.56-0.17c-3.56,0.8-0.38-0.14,1.51-0.62c1.13-0.57,2.29-1.12,3.55-1.63c6.9-1.78,13.33-3.32,19.71-5.42
						c1.05-0.55,1.98-1.02,2.35-1.2c1.44-0.71,3.03-1.34,4.52-1.92c1.74-0.67,2.84-1.44,3.22-1.74c0.19-0.17,0.2-0.15,0,0
						c-0.24,0.21-0.79,0.74-1.66,1.71c1.13-0.48,2.26-1.01,3.4-1.55c-1.05,0.04-0.42-0.66,1.96-2.13c0.71-0.53,1.42-1.06,2.13-1.59
						c0.34-0.15,0.63-0.27,0.91-0.39c1.06-1.09,2.3-1.88,3.73-2.34c0.46-0.21,0.79-0.37,1.04-0.47c0.93-0.72,1.85-1.45,2.83-2.1
						c1.49-0.89,3.2-1.4,4.72-2.19c3.7-1.91,7.03-4.57,10.71-6.51c5.56-2.93,10.91-4.28,15.81-8.41c4.07-3.43,6.25-4.18,9.98-5.62
						c-2.62,1.01,1.35-0.81,1.9-1.17c0.97-0.63,2.01-1.32,3.02-2.05c1.08-2.1,2.23-4.13,3.84-5.78c2.98-3.04,5.75-5.48,8.75-7.64
						c2.03-2.26,4.58-4.94,7.01-6.65c1.54-1.08,2.1-1.31,2.19-1.18c0.2-0.23,0.4-0.47,0.67-0.77c5.31-6.03-2.14,2.67,2.82-2.36
						c2.7-2.74,5.06-5.8,7.74-8.55c-0.02,0.02,2.74-2.84,4-4.09c1.13-1.7,2.42-3.15,4.07-4.99c1.55-1.72,2.94-3.56,4.5-5.24
						c2.04-2.19-1.01,2.04,1.92-2.24c3.5-5.11,7.93-9.8,12.12-14.35c2.52-2.73,4.81-5.15,7.2-7.95c0.11-0.22,0.22-0.44,0.34-0.68
						c0.22-0.43,0.49-0.84,0.72-1.27c1.8-3.42,4.04-6.54,6.46-9.55c-2.39,2.09,1.87-2.33,0,0l0,0c0.06-0.06,0.16-0.14,0.23-0.21
						c0.44-0.69,2.33-3.01,2.37-2.8c0.61-0.98,1.31-2.09,1.74-2.78c-0.23,0.24-0.21,0.16,0.4-0.64c0,0-0.16,0.25-0.4,0.64
						c0.35-0.37,1.3-1.49,1.76-2c0.6-1.39,1.92-3.14,2.8-4.32c0.16-0.46,0.35-0.91,0.58-1.35c0.45-1.06,1.02-1.98,1.66-2.86
						c0.68-1.09,1.54-2.11,2.6-3.08c0.13-0.14,0.27-0.29,0.41-0.44c0,0,0-0.01,0-0.01c-0.93,0.95-0.64,0.51,0.21-0.48
						c0.56-1.21,1.19-2.37,2.07-3.46c0.61-0.94,1.39-1.69,2.26-2.37c0.48-1.28,1.14-2.5,1.98-3.59c1.04-1.56,2.46-2.74,3.89-3.97
						c0.53-0.46,1.13-0.93,1.74-1.38c0.89-2.57,2.41-4.98,4.2-6.68c0.45-0.43,0.91-0.8,1.38-1.16c2.81-6.77,5.64-13.03,9.81-19.64
						c0.15-0.04,0.27-0.11,0.41-0.16c-0.08-0.64-0.12-1.28-0.11-1.92c-0.07-3.31,1.04-6.61,3.34-8.9c0.02-0.03,0.04-0.06,0.05-0.09
						c0.01-0.06,0.03-0.11,0.04-0.17c-0.06-1.07-0.1-2.22-0.06-3.56c-19.08-4.61-38.92-7.37-61.59-9.09c-2.82,1.04-3.45,4-4.67,4.9
						c-3.81,4.86-5.73,13.84-10.95,16.54c-5.28,2.73-2.95,0.01-12.41,3.12c0,0-10.82,1.81-26.8-0.21
						c-16.98-2.15-20.67-8.98-26.73-18.56c-12.42-19.63-11.73-33.94-3.86-47.9c23.03-40.84,70.79-29.64,86.77,1.71
						c22.68,2.12,43.77,2.17,67.93,2.97c5.18-2.04,7.28-4.84,11.66-8.98c18-75.53,52.17-266.75-37.51-431.13
						C1376.04,1075.33,1250.72,1066.73,1250.72,1066.73z M937.93,1896.16c-122.04-1.59-244.11-0.47-366.17-0.57
						c-44.29-0.04-44.78-0.53-44.77-42.91c0.01-140.31,0.02-280.62,0.03-420.93c-0.05-95.82,0.54-184.81-0.54-273.77
						c-0.33-27.36,8.67-39.43,37.36-39.23c118.63,0.84,237.34-2.27,355.89,0.92c184.19,4.96,290.48,120.4,321.01,286.2
						c15.19,82.51,13.35,163.54-6.41,244C1200.5,1787.67,1085.18,1898.08,937.93,1896.16z"/>
					<g>
						<g>
							<g>
								<path class="st13" d="M2302.97,1421.36c-0.07-0.02-0.14-0.03-0.21-0.04C2302.83,1421.33,2302.9,1421.34,2302.97,1421.36z"/>
								<path class="st13" d="M2303.69,1465.3L2303.69,1465.3c0.01,0,0.03,0,0.04,0C2303.72,1465.3,2303.71,1465.3,2303.69,1465.3z"
									/>
								<path class="st13" d="M1960.29,1047.03l59.79,51.68c14.21,12.28,26.61,26.49,36.78,42.28
									c13.88,21.55,28.42,46.12,28.42,46.12c46.69,97.79,31.41,238.98,31.41,238.98l2.04,271.71l305.3,0.5l0.37,43.55l-305.34,0
									l1.6,213.06c0,0-0.67,62.5-2.05,139.35l304.29-0.01c5.67-197.08-1.04-442.63,0.22-628.7l-119.79,0
									c0.02-0.01,0.03-0.03,0.05-0.04c-0.16,0.09-0.32,0.17-0.49,0.22c-0.03,0.03-0.05,0.05-0.08,0.08
									c0.02-0.02,0.04-0.03,0.06-0.05c0.15-0.05,0.29-0.11,0.42-0.18c-7.24,11.22-19.81,18.68-34.16,18.68
									c-23.24,0-41.94-19.47-40.66-42.99c1.12-20.73,18.25-37.59,38.99-38.42c15.03-0.6,28.28,6.98,35.8,18.61
									c-0.08-0.03-0.16-0.05-0.25-0.07c0.15,0.05,0.29,0.11,0.42,0.19c-0.03-0.02-0.05-0.05-0.08-0.07l120.24,0v0.07
									c1.15-75.08,4.05-137.7,10.3-179.44c18.69-124.85,131.73-191.16,131.73-191.16L1960.29,1047.03z"/>
								<path class="st13" d="M2110.86,2345.77c-3.39,49.43-15.35,112.14-103.3,233.08c-66.13,90.93-279.59,238.79-279.59,238.79
									s137.78,6.03,272.38-40.4c119.45-41.2,204.08-93.86,242.04-131.82c89.05-89.05,152.52-250.94,164.56-331.33
									c7.2-48.12,11.71-108.35,14.44-175.79l-303.61,0.11C2116.16,2217.61,2113.87,2302,2110.86,2345.77z"/>
								<path class="st13" d="M2422.89,2094.64l-1.49,43.23C2421.98,2123.77,2422.47,2109.34,2422.89,2094.64z"/>
								
									<rect x="2118.9" y="1697.8" transform="matrix(1 -7.514751e-03 7.514751e-03 1 -12.8642 15.9715)" class="st13" width="0" height="44.05"/>
								<path class="st13" d="M2118.61,2094.26l-0.84,44.14l0,0C2118.08,2123.4,2118.36,2108.58,2118.61,2094.26L2118.61,2094.26z"
									/>
								<path class="st13" d="M2422.91,2094.25L2422.91,2094.25c-0.01,0.13-0.01,0.26-0.01,0.39L2422.91,2094.25z"/>
								<path class="st13" d="M2421.39,2138.3l0.01-0.42C2421.4,2138.02,2421.39,2138.16,2421.39,2138.3L2421.39,2138.3z"/>
								<path class="st13" d="M2423.6,1465.55v-43.98c-0.22,14.23-0.37,28.91-0.47,43.98H2423.6z"/>
								<path class="st13" d="M2303.65,1465.3c-0.09,0.07-0.17,0.15-0.26,0.21c0.11-0.06,0.21-0.13,0.3-0.21
									C2303.68,1465.3,2303.67,1465.3,2303.65,1465.3z"/>
								<path class="st13" d="M2303.87,1421.53c-0.12,0.01-0.23,0.04-0.33,0.09c-0.03-0.02-0.06-0.04-0.09-0.05
									c0.02,0.02,0.05,0.04,0.08,0.06C2303.63,1421.58,2303.75,1421.54,2303.87,1421.53z"/>
								<path class="st13" d="M2302.76,1421.32c-0.12-0.02-0.25-0.03-0.39-0.02C2302.5,1421.29,2302.63,1421.3,2302.76,1421.32z"/>
								<path class="st13" d="M2303.02,1421.37c-0.02-0.01-0.03-0.01-0.05-0.01C2302.99,1421.36,2303,1421.37,2303.02,1421.37z"/>
								<path class="st13" d="M2247.48,1443.3c0,12.03,9.75,21.78,21.78,21.78c12.03,0,21.78-9.75,21.78-21.78
									c0-12.03-9.75-21.78-21.78-21.78C2257.23,1421.53,2247.48,1431.27,2247.48,1443.3z M2284.55,1430.37
									c0.32,0.87,0.61,1.75,0.88,2.64c0.34,1.51,0.73,3,1.21,4.42c0.26,0.76,0.72,1.28,1.27,1.59c-0.03,0.06-0.07,0.11-0.1,0.18
									c-0.02,0.05-0.03,0.11-0.04,0.16c-0.07-0.08-0.13-0.17-0.2-0.25c-0.33-0.47-0.71-0.91-1.09-1.34
									c-0.18-0.32-0.34-0.57-0.46-0.73c-0.4-0.51-0.8-0.98-1.21-1.43c-0.04-1.01-0.14-2.01-0.35-2.97
									C2284.52,1431.88,2284.55,1431.12,2284.55,1430.37z"/>
							</g>
						</g>
					</g>
				</g>
			</g>
		</g>
		<g>
			<path class="st14" d="M3095.37,3187.6c-285.12,285.12-609.27,527.83-1080.78,619.03c-606.82,117.37-1323.13-64.08-1509.27-923.69
				"/>
			<path class="st14" d="M3399.42,825.82c525.77,471.56,439.6,1618.13-304.05,2361.78"/>
			<path class="st14" d="M1372.1,1016.29c540.4-484.83,1467.51-692.56,2027.32-190.47"/>
		</g>
		<g>
			<path class="st15" d="M3009.97,529.03V353.29c0-2,1.62-3.62,3.62-3.62h176.02c2,0,3.62,1.62,3.62,3.62v175.74
				c0,2-1.62,3.62-3.62,3.62h-176.02C3011.59,532.65,3009.97,531.03,3009.97,529.03z"/>
			<path class="st15" d="M3323.42,413.09V164.86c0-2,1.62-3.62,3.62-3.62h270.33c2,0,3.62,1.62,3.62,3.62v248.23
				c0,2-1.62,3.62-3.62,3.62h-270.33C3325.05,416.71,3323.42,415.09,3323.42,413.09z"/>
			<path class="st15" d="M3218.26,742.89V602.24c0-2,1.62-3.62,3.62-3.62h164.7c2,0,3.62,1.62,3.62,3.62v140.65
				c0,2-1.62,3.62-3.62,3.62h-164.7C3219.88,746.51,3218.26,744.89,3218.26,742.89z"/>
			<path class="st15" d="M3732.56,552.61V376.88c0-2,1.62-3.62,3.62-3.62h175.73c2,0,3.62,1.62,3.62,3.62v175.73
				c0,2-1.62,3.62-3.62,3.62h-175.73C3734.18,556.23,3732.56,554.61,3732.56,552.61z"/>
		</g>
	</g>
</g>
</svg>
